<?xml version="1.0"?>
<svg version="1.1" xmlns="http://www.w3.org/2000/svg" width="205" height="40" style=""><path fill="#" d="M15.71484375,13.9453125q0-0.55078125,0.134765625-0.802734375t0.38671875-0.3515625t0.609375-0.076171875t0.837890625,0.0234375q1.21875,0,2.4609375,0.375t2.23828125,1.095703125t1.60546875,1.775390625t0.609375,2.42578125q0,0.9140625-0.263671875,1.728515625t-0.744140625,1.5234375t-1.125,1.294921875t-1.41796875,1.01953125q0.31640625,0.31640625,0.8203125,1.119140625t0.99609375,1.7109375t0.873046875,1.763671875t0.451171875,1.2890625l-0.140625,0.2109375q-0.31640625,0.1875-0.76171875,0.19921875q-0.2109375,0-0.55078125-0.052734375t-0.43359375-0.310546875q-0.48046875-1.34765625-1.048828125-2.77734375t-1.400390625-2.578125l0-0.0234375q-0.29296875,0.1171875-0.580078125,0.228515625t-0.580078125,0.205078125q0.09375,1.30078125,0.193359375,2.560546875t0.099609375,2.548828125q0,0.1640625-0.158203125,0.263671875t-0.357421875,0.158203125t-0.404296875,0.08203125t-0.333984375,0.0234375q-0.1171875,0-0.333984375-0.0234375t-0.416015625-0.08203125t-0.345703125-0.169921875t-0.146484375-0.298828125q0-1.30078125-0.05859375-2.595703125t-0.12890625-2.583984375q-0.36328125-0.234375-0.36328125-0.609375q0-0.29296875,0.28125-0.3984375q-0.140625-2.47265625-0.322265625-4.93359375t-0.181640625-4.95703125z M17.8359375,13.58203125q0.1640625,2.54296875,0.369140625,5.02734375t0.392578125,5.02734375q0.8203125-0.234375,1.529296875-0.814453125t1.224609375-1.306640625t0.802734375-1.58203125t0.287109375-1.69921875q0-0.9375-0.375-1.798828125t-0.99609375-1.505859375q-0.6328125-0.64453125-1.453125-1.0078125q-0.7265625-0.31640625-1.5234375-0.31640625l-0.2109375,0z M26.7617578125,25.8515625q0-0.66796875,0.169921875-1.376953125t0.5390625-1.27734375t0.931640625-0.92578125t1.359375-0.357421875q0.59765625,0,1.259765625,0.205078125t1.212890625,0.5859375t0.896484375,0.931640625t0.345703125,1.23046875q0,0.8203125-0.298828125,1.55859375t-0.837890625,1.318359375t-1.259765625,0.9140625t-1.564453125,0.333984375q-0.69140625,0-1.20703125-0.251953125t-0.861328125-0.673828125t-0.515625-0.99609375t-0.169921875-1.21875z M28.4844140625,25.828125q0,0.2109375,0.064453125,0.62109375t0.193359375,0.802734375t0.333984375,0.6796875t0.498046875,0.263671875q0.62109375-0.0703125,1.025390625-0.404296875t0.65625-0.814453125t0.3515625-1.04296875t0.099609375-1.06640625q0-0.64453125-0.251953125-1.078125t-0.826171875-0.703125q0,0.0234375,0.0234375,0.0234375t0.0234375-0.0234375l-0.29296875-0.0703125q-0.1171875-0.046875-0.287109375-0.10546875t-0.333984375-0.2578125q-0.45703125,0.1640625-0.708984375,0.421875t-0.380859375,0.626953125t-0.158203125,0.884765625t-0.029296875,1.2421875z M35.406328125,25.8515625q0-0.66796875,0.169921875-1.376953125t0.5390625-1.27734375t0.931640625-0.92578125t1.359375-0.357421875q0.59765625,0,1.259765625,0.205078125t1.212890625,0.5859375t0.896484375,0.931640625t0.345703125,1.23046875q0,0.8203125-0.298828125,1.55859375t-0.837890625,1.318359375t-1.259765625,0.9140625t-1.564453125,0.333984375q-0.69140625,0-1.20703125-0.251953125t-0.861328125-0.673828125t-0.515625-0.99609375t-0.169921875-1.21875z M37.128984375,25.828125q0,0.2109375,0.064453125,0.62109375t0.193359375,0.802734375t0.333984375,0.6796875t0.498046875,0.263671875q0.62109375-0.0703125,1.025390625-0.404296875t0.65625-0.814453125t0.3515625-1.04296875t0.099609375-1.06640625q0-0.64453125-0.251953125-1.078125t-0.826171875-0.703125q0,0.0234375,0.0234375,0.0234375t0.0234375-0.0234375l-0.29296875-0.0703125q-0.1171875-0.046875-0.287109375-0.10546875t-0.333984375-0.2578125q-0.45703125,0.1640625-0.708984375,0.421875t-0.380859375,0.626953125t-0.158203125,0.884765625t-0.029296875,1.2421875z M44.3145703125,22.693359375q-0.029296875-0.392578125,0.046875-0.720703125t0.3046875-0.533203125t0.732421875-0.205078125q0.1171875,0,0.287109375,0.029296875t0.333984375,0.076171875t0.275390625,0.140625t0.111328125,0.2578125l0,1.32421875q0.45703125-0.52734375,0.99609375-0.755859375t1.23046875-0.228515625q0.52734375,0,1.04296875,0.240234375t0.97265625,0.638671875t0.791015625,0.87890625t0.486328125,0.9609375q0.09375-0.43359375,0.2109375-1.060546875t0.345703125-1.201171875t0.603515625-0.984375t0.99609375-0.41015625q0.66796875,0,1.125,0.48046875t0.744140625,1.248046875t0.43359375,1.716796875t0.216796875,1.875t0.0703125,1.728515625l0,1.259765625q0,0.140625-0.10546875,0.228515625t-0.263671875,0.134765625t-0.328125,0.05859375t-0.263671875,0.01171875q-0.36328125,0-0.662109375-0.111328125t-0.298828125-0.568359375l0-1.0546875t-0.0234375-1.365234375t-0.08203125-1.46484375t-0.15234375-1.330078125t-0.240234375-0.9609375t-0.357421875-0.375q-0.29296875,0-0.421875,0.328125t-0.216796875,0.83203125t-0.134765625,1.06640625t-0.12890625,1.06640625t-0.263671875,0.826171875t-0.498046875,0.322265625q-0.33984375,0-0.59765625-0.322265625t-0.509765625-0.802734375t-0.50390625-1.03125t-0.556640625-1.03125q-0.3046875-0.4921875-0.65625-0.796875q-0.31640625-0.29296875-0.71484375-0.28125l-0.05859375,0q-0.52734375,0.0234375-0.826171875,0.380859375t-0.45703125,0.873046875t-0.193359375,1.107421875t-0.03515625,1.037109375q0,0.421875,0.0703125,0.984375q0.046875,0.375,0.046875,0.71484375q0,0.17578125-0.01171875,0.33984375q-0.03515625,0.4921875-0.263671875,0.826171875t-0.849609375,0.333984375q-0.234375,0-0.5859375-0.046875t-0.46875-0.31640625q-0.26953125-0.48046875-0.41015625-1.212890625t-0.2109375-1.51171875t-0.08203125-1.546875t-0.01171875-1.318359375q0-0.38671875-0.029296875-0.779296875z M68.226796875,13.9453125q0-0.55078125,0.134765625-0.802734375t0.38671875-0.3515625t0.609375-0.076171875t0.837890625,0.0234375q1.21875,0,2.4609375,0.375t2.23828125,1.095703125t1.60546875,1.775390625t0.609375,2.42578125q0,0.9140625-0.263671875,1.728515625t-0.744140625,1.5234375t-1.125,1.294921875t-1.41796875,1.01953125q0.31640625,0.31640625,0.8203125,1.119140625t0.99609375,1.7109375t0.873046875,1.763671875t0.451171875,1.2890625l-0.140625,0.2109375q-0.31640625,0.1875-0.76171875,0.19921875q-0.2109375,0-0.55078125-0.052734375t-0.43359375-0.310546875q-0.48046875-1.34765625-1.048828125-2.77734375t-1.400390625-2.578125l0-0.0234375q-0.29296875,0.1171875-0.580078125,0.228515625t-0.580078125,0.205078125q0.09375,1.30078125,0.193359375,2.560546875t0.099609375,2.548828125q0,0.1640625-0.158203125,0.263671875t-0.357421875,0.158203125t-0.404296875,0.08203125t-0.333984375,0.0234375q-0.1171875,0-0.333984375-0.0234375t-0.416015625-0.08203125t-0.345703125-0.169921875t-0.146484375-0.298828125q0-1.30078125-0.05859375-2.595703125t-0.12890625-2.583984375q-0.36328125-0.234375-0.36328125-0.609375q0-0.29296875,0.28125-0.3984375q-0.140625-2.47265625-0.322265625-4.93359375t-0.181640625-4.95703125z M70.347890625,13.58203125q0.1640625,2.54296875,0.369140625,5.02734375t0.392578125,5.02734375q0.8203125-0.234375,1.529296875-0.814453125t1.224609375-1.306640625t0.802734375-1.58203125t0.287109375-1.69921875q0-0.9375-0.375-1.798828125t-0.99609375-1.505859375q-0.6328125-0.64453125-1.453125-1.0078125q-0.7265625-0.31640625-1.5234375-0.31640625l-0.2109375,0z M79.5080859375,26.109375q0-0.8203125,0.181640625-1.93359375t0.615234375-2.109375t1.142578125-1.693359375t1.787109375-0.697265625q1.0078125,0,1.51171875,0.580078125t0.50390625,1.564453125q0,0.64453125-0.240234375,1.412109375t-0.685546875,1.453125t-1.0546875,1.142578125t-1.359375,0.45703125l-0.3046875-0.0234375q0,0.31640625,0.09375,0.849609375t0.275390625,1.060546875t0.46875,0.92578125t0.697265625,0.3984375q0.59765625,0,1.1484375-0.48046875t1.04296875-1.06640625t0.9140625-1.06640625t0.7734375-0.48046875q0.1875,0,0.38671875,0.05859375t0.22265625,0.328125q0,0.1640625-0.087890625,0.26953125t-0.158203125,0.234375q-0.36328125,0.62109375-0.791015625,1.18359375t-0.966796875,1.01953125t-1.177734375,0.720703125t-1.412109375,0.263671875q-1.0078125,0-1.67578125-0.357421875t-1.078125-0.9609375t-0.591796875-1.39453125t-0.181640625-1.658203125z M81.6057421875,25.21875l0.328125,0.29296875q0.234375,0.2109375,0.46875,0.09375t0.421875-0.427734375t0.345703125-0.767578125t0.28125-0.9375t0.181640625-0.9375t0.05859375-0.76171875l0-0.3984375t-0.03515625-0.421875t-0.123046875-0.333984375t-0.275390625-0.169921875q-0.05859375-0.01171875-0.10546875-0.01171875q-0.3984375,0-0.6796875,0.50390625q-0.3046875,0.5625-0.4921875,1.365234375t-0.26953125,1.646484375t-0.10546875,1.265625z M89.30109375,22.60546875q0-0.48046875,0.28125-0.826171875t0.685546875-0.5625t0.884765625-0.322265625t0.890625-0.10546875q0.31640625,0,0.84375,0.09375t1.03125,0.28125t0.873046875,0.4921875t0.369140625,0.71484375q0,0.1875-0.140625,0.333984375t-0.29296875,0.146484375q-0.31640625,0-0.57421875-0.205078125t-0.533203125-0.43359375t-0.603515625-0.43359375t-0.73828125-0.205078125t-0.744140625,0.263671875t-0.333984375,0.697265625q0,0.71484375,0.50390625,1.400390625t1.107421875,1.44140625t1.107421875,1.587890625t0.50390625,1.83984375q0,0.43359375-0.181640625,0.732421875t-0.48046875,0.486328125t-0.673828125,0.287109375t-0.7265625,0.099609375q-0.38671875,0-0.90234375-0.181640625t-0.97265625-0.48046875t-0.767578125-0.697265625t-0.310546875-0.83203125q0-0.2109375,0.298828125-0.26953125t0.439453125-0.05859375q0.0703125,0,0.216796875,0.046875t0.287109375,0.10546875t0.251953125,0.12890625t0.087890625,0.15234375q0.1171875,0.140625,0.357421875,0.416015625t0.48046875,0.4453125t0.421875,0.123046875t0.181640625-0.52734375q0-0.9140625-0.4921875-1.681640625t-1.072265625-1.5t-1.072265625-1.453125t-0.4921875-1.541015625z M97.5589453125,26.109375q0-0.8203125,0.181640625-1.93359375t0.615234375-2.109375t1.142578125-1.693359375t1.787109375-0.697265625q1.0078125,0,1.51171875,0.580078125t0.50390625,1.564453125q0,0.64453125-0.240234375,1.412109375t-0.685546875,1.453125t-1.0546875,1.142578125t-1.359375,0.45703125l-0.3046875-0.0234375q0,0.31640625,0.09375,0.849609375t0.275390625,1.060546875t0.46875,0.92578125t0.697265625,0.3984375q0.59765625,0,1.1484375-0.48046875t1.04296875-1.06640625t0.9140625-1.06640625t0.7734375-0.48046875q0.1875,0,0.38671875,0.05859375t0.22265625,0.328125q0,0.1640625-0.087890625,0.26953125t-0.158203125,0.234375q-0.36328125,0.62109375-0.791015625,1.18359375t-0.966796875,1.01953125t-1.177734375,0.720703125t-1.412109375,0.263671875q-1.0078125,0-1.67578125-0.357421875t-1.078125-0.9609375t-0.591796875-1.39453125t-0.181640625-1.658203125z M99.6566015625,25.21875l0.328125,0.29296875q0.234375,0.2109375,0.46875,0.09375t0.421875-0.427734375t0.345703125-0.767578125t0.28125-0.9375t0.181640625-0.9375t0.05859375-0.76171875l0-0.3984375t-0.03515625-0.421875t-0.123046875-0.333984375t-0.275390625-0.169921875q-0.05859375-0.01171875-0.10546875-0.01171875q-0.3984375,0-0.6796875,0.50390625q-0.3046875,0.5625-0.4921875,1.365234375t-0.26953125,1.646484375t-0.10546875,1.265625z M107.351953125,22.34765625q0-0.48046875,0.169921875-0.80859375t0.720703125-0.328125q0.2109375,0,0.52734375,0.064453125t0.36328125,0.322265625q0.1171875,0.69140625,0.12890625,1.5t0.08203125,1.5234375q0.26953125-0.52734375,0.69140625-1.13671875t0.9609375-1.125t1.171875-0.85546875t1.2890625-0.33984375q0.046875,0,0.17578125,0.03515625t0.240234375,0.099609375t0.134765625,0.146484375t-0.12890625,0.15234375q-0.046875,0.140625-0.19921875,0.169921875t-0.26953125,0.029296875q-0.0703125,0-0.22265625-0.05859375q-0.8671875,0.45703125-1.4765625,1.2421875t-0.99609375,1.740234375t-0.5625,2.015625t-0.17578125,2.068359375q0,0.50390625-0.228515625,0.609375t-0.732421875,0.10546875q-0.26953125,0-0.568359375-0.05859375t-0.416015625-0.375q-0.2109375-0.66796875-0.345703125-1.53515625t-0.205078125-1.787109375t-0.099609375-1.810546875t-0.029296875-1.60546875z M115.1996484375,21.26953125q0-0.09375,0.111328125-0.169921875t0.251953125-0.111328125t0.287109375-0.046875t0.216796875-0.01171875q0.52734375,0,0.90234375,0.46875t0.650390625,1.201171875t0.46875,1.6171875t0.369140625,1.763671875t0.345703125,1.611328125t0.380859375,1.130859375q0.36328125-0.71484375,0.662109375-1.72265625t0.55078125-2.0859375t0.4453125-2.126953125t0.310546875-1.833984375q0.046875-0.2109375,0.29296875-0.263671875t0.41015625-0.052734375q0.26953125,0,0.46875,0.076171875t0.19921875,0.333984375q0,0.43359375-0.10546875,1.177734375t-0.287109375,1.669921875t-0.421875,1.8984375t-0.515625,1.845703125t-0.57421875,1.546875t-0.591796875,0.955078125q-0.140625,0.1640625-0.439453125,0.228515625t-0.498046875,0.064453125q-0.69140625,0-1.1484375-0.36328125l0,0.0234375q-0.71484375-0.66796875-1.0546875-1.62890625t-0.4921875-2.00390625t-0.275390625-2.07421875t-0.416015625-1.875q-0.046875-0.09375-0.1171875-0.275390625t-0.1640625-0.36328125t-0.158203125-0.345703125t-0.064453125-0.2578125z M124.441875,25.62890625q0-0.796875,0.216796875-1.53515625t0.650390625-1.318359375t1.083984375-0.92578125t1.505859375-0.345703125q0.52734375,0,1.166015625,0.158203125t1.201171875,0.46875t0.9375,0.791015625t0.375,1.1015625q0,0.29296875-0.099609375,0.4453125t-0.404296875,0.15234375l-0.12890625-0.0234375q0.33984375,0.9140625,0.5859375,1.875t0.48046875,1.921875q0.09375,0.1875,0.140625,0.333984375t0.046875,0.287109375q0,0.1875-0.10546875,0.310546875t-0.275390625,0.181640625t-0.3515625,0.08203125t-0.322265625,0.0234375q-0.50390625,0-0.755859375-0.17578125t-0.36328125-0.48046875t-0.134765625-0.685546875t-0.09375-0.767578125q-0.140625,0.45703125-0.369140625,0.890625t-0.5390625,0.779296875t-0.732421875,0.55078125t-0.94921875,0.205078125q-0.7734375,0-1.30078125-0.4453125t-0.849609375-1.095703125t-0.46875-1.388671875t-0.146484375-1.37109375z M126.1059375,25.46484375q0,0.43359375,0.05859375,0.9140625t0.193359375,0.94921875t0.345703125,0.884765625t0.52734375,0.732421875q0.57421875-0.62109375,0.849609375-1.51171875t0.4921875-1.716796875t0.4921875-1.41796875t0.849609375-0.591796875q0.36328125,0,0.609375,0.12890625q-0.1171875-0.29296875-0.38671875-0.568359375t-0.603515625-0.50390625t-0.69140625-0.375t-0.673828125-0.146484375q-0.09375,0-0.216796875,0.029296875t-0.193359375,0.005859375q-0.48046875,0.140625-0.791015625,0.486328125t-0.50390625,0.814453125t-0.275390625,0.9609375t-0.08203125,0.92578125z M134.1176953125,18.1875q0-0.1640625,0.3515625-0.28125t0.796875-0.193359375t0.861328125-0.111328125t0.568359375-0.05859375q0-0.31640625,0.0234375-0.638671875t0.12890625-0.57421875t0.333984375-0.404296875t0.638671875-0.15234375q0.33984375,0,0.515625,0.08203125t0.375,0.33984375q0.046875,0.140625,0.046875,0.26953125l0,0.392578125t-0.0234375,0.404296875q0.43359375-0.046875,0.861328125-0.111328125t0.861328125-0.064453125q0.31640625,0,0.43359375,0.01171875t0.234375,0.28125q0.09375,0.26953125-0.228515625,0.41015625t-0.7734375,0.2109375t-0.896484375,0.10546875t-0.5390625,0.03515625q-0.140625,2.015625-0.287109375,3.99609375t-0.146484375,4.01953125q0,0.9140625,0.05859375,1.88671875t0.328125,1.83984375q0.0703125,0.26953125,0.234375,0.50390625t0.1640625,0.50390625q0,0.1640625-0.12890625,0.2578125t-0.310546875,0.158203125t-0.36328125,0.076171875t-0.298828125,0.01171875q-0.73828125,0-1.125-0.55078125t-0.556640625-1.318359375t-0.181640625-1.576171875t-0.01171875-1.3125q0-1.03125,0.041015625-2.109375t0.099609375-2.1328125t0.1640625-2.0625t0.24609375-1.875q-0.41015625,0.046875-0.802734375,0.10546875t-0.802734375,0.05859375q-0.09375,0-0.251953125-0.01171875t-0.298828125-0.05859375t-0.240234375-0.12890625t-0.099609375-0.234375z M143.078671875,25.34765625q0-1.078125,0.251953125-2.115234375t0.427734375-2.068359375q0.046875-0.26953125,0.369140625-0.333984375t0.544921875-0.064453125q0.38671875,0,0.62109375,0.1171875q0.09375,0.046875,0.17578125,0.10546875t0.08203125,0.15234375q0,1.0078125-0.240234375,1.96875t-0.240234375,2.0390625q0,0.36328125,0.052734375,0.685546875t0.099609375,0.638671875l0.0703125,0.33984375q0,0.09375,0.01171875,0.1640625t0.03515625,0.1640625q0,0.2109375-0.298828125,0.287109375t-0.521484375,0.076171875q-0.33984375,0-0.626953125-0.134765625t-0.451171875-0.462890625l-0.1640625-0.33984375q-0.140625-0.26953125-0.140625-0.603515625t-0.05859375-0.615234375z M143.828671875,18.29296875l0-0.22265625q0-0.55078125,0.275390625-0.984375t0.826171875-0.43359375q0.0703125,0,0.134765625,0.01171875t0.134765625,0.01171875q0.140625,0.0234375,0.369140625,0.111328125t0.228515625,0.275390625l0,0.0234375q-0.046875,0.09375-0.05859375,0.193359375t-0.05859375,0.169921875l0.0234375-0.0234375q-0.140625,0.36328125-0.228515625,0.5859375t-0.193359375,0.357421875t-0.263671875,0.193359375t-0.451171875,0.05859375q-0.046875,0-0.1640625-0.01171875t-0.251953125-0.046875t-0.228515625-0.09375t-0.09375-0.17578125z M147.9615234375,25.8515625q0-0.66796875,0.169921875-1.376953125t0.5390625-1.27734375t0.931640625-0.92578125t1.359375-0.357421875q0.59765625,0,1.259765625,0.205078125t1.212890625,0.5859375t0.896484375,0.931640625t0.345703125,1.23046875q0,0.8203125-0.298828125,1.55859375t-0.837890625,1.318359375t-1.259765625,0.9140625t-1.564453125,0.333984375q-0.69140625,0-1.20703125-0.251953125t-0.861328125-0.673828125t-0.515625-0.99609375t-0.169921875-1.21875z M149.6841796875,25.828125q0,0.2109375,0.064453125,0.62109375t0.193359375,0.802734375t0.333984375,0.6796875t0.498046875,0.263671875q0.62109375-0.0703125,1.025390625-0.404296875t0.65625-0.814453125t0.3515625-1.04296875t0.099609375-1.06640625q0-0.64453125-0.251953125-1.078125t-0.826171875-0.703125q0,0.0234375,0.0234375,0.0234375t0.0234375-0.0234375l-0.29296875-0.0703125q-0.1171875-0.046875-0.287109375-0.10546875t-0.333984375-0.2578125q-0.45703125,0.1640625-0.708984375,0.421875t-0.380859375,0.626953125t-0.158203125,0.884765625t-0.029296875,1.2421875z M156.8521875,25.6875l0-0.33984375q0-0.421875,0.0234375-0.796875q0.0234375-0.52734375,0.0234375-0.8671875q0-0.1875,0.0234375-0.427734375t0.1171875-0.380859375q0.1171875-0.1171875,0.275390625-0.240234375t0.345703125-0.123046875q0.59765625,0,0.9375,0.134765625t0.36328125,0.556640625l0.046875,0.36328125q0.2109375-0.50390625,0.5625-1.248046875t0.814453125-1.41796875t1.04296875-1.1484375t1.224609375-0.474609375q0.59765625,0,0.984375,0.5625t0.615234375,1.435546875t0.322265625,1.9453125t0.12890625,2.103515625t0.046875,1.880859375t0.08203125,1.283203125q0.046875,0.36328125,0.158203125,0.767578125t0.111328125,0.744140625q0,0.09375-0.134765625,0.181640625t-0.287109375,0.146484375t-0.310546875,0.09375t-0.228515625,0.03515625q-0.45703125,0-0.650390625-0.685546875t-0.240234375-1.716796875t-0.046875-2.232421875t-0.08203125-2.232421875t-0.333984375-1.716796875t-0.802734375-0.708984375q-0.50390625,0-1.04296875,0.650390625t-0.92578125,1.728515625q-0.375,1.078125-0.515625,2.44921875q-0.046875,0.43359375-0.046875,0.8671875q0,0.94921875,0.19921875,1.8984375q0.0234375,0.1640625-0.134765625,0.24609375t-0.392578125,0.12890625t-0.474609375,0.05859375t-0.369140625,0.01171875q-0.45703125,0-0.732421875-0.322265625t-0.427734375-0.826171875t-0.205078125-1.130859375t-0.064453125-1.236328125z M167.5006640625,22.60546875q0-0.48046875,0.28125-0.826171875t0.685546875-0.5625t0.884765625-0.322265625t0.890625-0.10546875q0.31640625,0,0.84375,0.09375t1.03125,0.28125t0.873046875,0.4921875t0.369140625,0.71484375q0,0.1875-0.140625,0.333984375t-0.29296875,0.146484375q-0.31640625,0-0.57421875-0.205078125t-0.533203125-0.43359375t-0.603515625-0.43359375t-0.73828125-0.205078125t-0.744140625,0.263671875t-0.333984375,0.697265625q0,0.71484375,0.50390625,1.400390625t1.107421875,1.44140625t1.107421875,1.587890625t0.50390625,1.83984375q0,0.43359375-0.181640625,0.732421875t-0.48046875,0.486328125t-0.673828125,0.287109375t-0.7265625,0.099609375q-0.38671875,0-0.90234375-0.181640625t-0.97265625-0.48046875t-0.767578125-0.697265625t-0.310546875-0.83203125q0-0.2109375,0.298828125-0.26953125t0.439453125-0.05859375q0.0703125,0,0.216796875,0.046875t0.287109375,0.10546875t0.251953125,0.12890625t0.087890625,0.15234375q0.1171875,0.140625,0.357421875,0.416015625t0.48046875,0.4453125t0.421875,0.123046875t0.181640625-0.52734375q0-0.9140625-0.4921875-1.681640625t-1.072265625-1.5t-1.072265625-1.453125t-0.4921875-1.541015625z"/><path fill="#" d=""/></svg>
